<svg version="1.1" id="Layer_1" xmlns="http://www.w3.org/2000/svg" xmlns:xlink="http://www.w3.org/1999/xlink" x="0px" y="0px"
	 width="78px" height="127px" viewBox="0 0 78 127" enable-background="new 0 0 78 127" xml:space="preserve">
<g>
	<polygon fill="#ddd" points="36.8,99 64.1,61.8 73.9,61.2 75.1,64.3 38.6,123.3 37.4,122.7 	"/>
	<polygon fill="#ddd" points="34.3,98.4 34.9,123.3 31.9,122.1 3.3,63.7 3.3,60.6 8.8,52.1 11.8,53.3 	"/>
	<polygon fill="#ddd" points="38,91.7 44.1,83.8 44.1,81.3 21.6,36.9 19.7,36.9 13,47.2 36.8,91.7 	"/>
	<g>
		<path fill="#ddd" d="M59.9,36.3"/>
		<polyline fill="#ddd" points="59.9,36.3 60.5,36.3 66,47.2 65.4,50.9 48.3,76.5 46.5,75.8 41.6,66.7 41.6,63.7 59.9,36.3 		"/>
	</g>
	<g>
		<path fill="#ddd" d="M50.8,19.3"/>
		<polyline fill="#ddd" points="50.8,19.3 52,19.3 57.5,30.8 56.8,33.9 39.8,59.4 38,58.8 33.1,50.3 33.1,46.6 50.8,19.3 		"/>
	</g>
	<g>
		<path fill="#ddd" d="M42.2,2.8"/>
		<polyline fill="#ddd" points="42.2,2.8 42.9,2.8 48.9,14.4 47.7,17.4 30.7,43 28.9,42.4 24,33.9 24,30.2 42.2,2.8 		"/>
	</g>
</g>
</svg>
