<?xml version="1.0" encoding="utf-8"?>
<!-- Generator: Adobe Illustrator 18.1.1, SVG Export Plug-In . SVG Version: 6.00 Build 0)  -->
<!DOCTYPE svg PUBLIC "-//W3C//DTD SVG 1.1//EN" "http://www.w3.org/Graphics/SVG/1.1/DTD/svg11.dtd">
<svg version="1.1" id="Layer_1" xmlns="http://www.w3.org/2000/svg" xmlns:xlink="http://www.w3.org/1999/xlink" x="0px" y="0px"
	 width="400px" height="137px" viewBox="0 0 400 137" enable-background="new 0 0 400 137" xml:space="preserve">
<g>
	<path fill="#FFFFFF" d="M54.9,98.8c-8.3,3.2-16.6,6.8-24.7,10.6C20.5,88.7,10.7,68,1,47.3c3.9-1.8,7.7-3.6,11.6-5.3
		c7.5,17.1,15,34.2,22.4,51.3c5-2.2,10.1-4.3,15.2-6.3C51.8,90.9,53.4,94.9,54.9,98.8z"/>
	<path fill="#FFFFFF" d="M86.4,88c-9,2.7-17.8,5.6-26.6,8.9c-8-21.4-16.1-42.8-24.1-64.3c10.2-3.8,20.6-7.3,31-10.4
		c1.2,4,2.4,8.1,3.6,12.1c-6.2,1.8-12.4,3.8-18.6,6c1.7,4.8,3.3,9.6,5,14.5c5.1-1.8,10.3-3.4,15.4-5c1.2,4.1,2.5,8.1,3.7,12.2
		c-5,1.5-10,3.1-15,4.9c1.7,4.8,3.3,9.6,5,14.5c5.6-1.9,11.3-3.8,17-5.4C84,79.9,85.2,83.9,86.4,88z"/>
	<path fill="#FFFFFF" d="M121.3,72c-1.8,2.8-3.6,5.6-5.3,8.4c-6,1.3-12,2.7-18,4.3c-2.8-1.7-5.7-3.4-8.6-5.1c-1-3.5-2-7.1-3-10.6
		c3.6-1,7.2-2,10.8-2.9c0.5,1.8,0.9,3.6,1.4,5.4c3.6-0.9,7.2-1.8,10.8-2.6c-1.1-5-2.2-9.9-3.4-14.9c-5.1,1.1-10.1,2.4-15.2,3.7
		c-3-1.7-6-3.4-9.1-5c-2.4-8.4-4.8-16.8-7.1-25.3c1.9-3,3.9-6.1,5.9-9.1c7-1.8,14-3.5,21.1-5c3.1,1.8,6.2,3.6,9.2,5.4
		c0.7,3.5,1.4,7,2.1,10.5c-3.9,0.8-7.9,1.6-11.8,2.5c-0.4-1.7-0.8-3.4-1.1-5c-4,0.9-8,1.9-12,2.9c1.3,4.9,2.5,9.9,3.8,14.8
		c5.2-1.3,10.5-2.6,15.8-3.7c3,1.8,5.9,3.7,8.7,5.6C117.9,54.8,119.6,63.4,121.3,72z"/>
	<path fill="#FFFFFF" d="M158.8,66.5c-2.1,2.6-4.1,5.2-6,7.9c-6.1,0.7-12.2,1.6-18.2,2.6c-2.6-2-5.3-3.9-8.1-5.9
		c-0.7-3.6-1.3-7.2-2-10.9c3.7-0.7,7.3-1.3,11-1.9c0.3,1.8,0.6,3.7,0.9,5.5c3.7-0.6,7.3-1.1,11-1.6c-0.6-5.1-1.3-10.1-1.9-15.2
		c-5.1,0.7-10.3,1.4-15.4,2.3c-2.8-2-5.7-3.9-8.5-5.8c-1.6-8.6-3.2-17.2-4.7-25.8c2.2-2.8,4.4-5.7,6.6-8.5c7.1-1.2,14.2-2.2,21.4-3
		c2.9,2.1,5.8,4.1,8.6,6.3c0.4,3.5,0.7,7.1,1.1,10.6c-4,0.4-8,0.9-11.9,1.4c-0.2-1.7-0.4-3.4-0.7-5.1c-4.1,0.5-8.1,1.1-12.2,1.7
		c0.8,5,1.6,10.1,2.3,15.1c5.3-0.8,10.6-1.6,16-2.2c2.8,2.1,5.5,4.2,8.2,6.4C157,49.1,157.9,57.8,158.8,66.5z"/>
	<path fill="#FFFFFF" d="M192.3,71.7c-9.2,0.2-18.5,0.6-27.7,1.5c-2-22.8-4-45.6-6-68.4c10.7-0.9,21.5-1.5,32.2-1.7
		c0.1,4.2,0.2,8.4,0.2,12.7c-6.4,0.1-12.8,0.4-19.3,0.8c0.3,5.1,0.6,10.2,0.9,15.3c5.3-0.3,10.7-0.5,16-0.7
		c0.1,4.2,0.2,8.5,0.3,12.7c-5.2,0.1-10.4,0.3-15.6,0.7c0.3,5.1,0.6,10.2,0.9,15.3c5.9-0.4,11.8-0.6,17.6-0.7
		C192.2,63.2,192.2,67.5,192.3,71.7z"/>
	<path fill="#FFFFFF" d="M228.6,16.6c-6.4-0.4-12.8-0.7-19.2-0.8c-0.1,5.1-0.2,10.2-0.3,15.3c5.3,0.1,10.7,0.3,16,0.7
		c-0.2,4.2-0.5,8.5-0.7,12.7c-5.2-0.3-10.3-0.5-15.5-0.6c-0.2,9.3-0.4,18.6-0.6,28c-3.6-0.1-7.1-0.1-10.7-0.1
		c-0.1-22.9-0.2-45.8-0.3-68.6c10.8,0,21.5,0.3,32.3,1C229.1,8.2,228.8,12.4,228.6,16.6z"/>
	<path fill="#FFFFFF" d="M265.6,20.6c-6.4-0.9-12.7-1.7-19.1-2.4c-0.5,5.1-1.1,10.1-1.6,15.2c5.3,0.6,10.6,1.2,15.9,2
		c-0.6,4.2-1.2,8.4-1.8,12.6c-5.1-0.7-10.3-1.4-15.4-1.9c-1,9.3-1.9,18.5-2.9,27.8c-3.5-0.4-7.1-0.7-10.6-1
		c1.8-22.8,3.6-45.6,5.3-68.4c10.7,0.8,21.4,2,32.1,3.6C266.9,12.2,266.3,16.4,265.6,20.6z"/>
	<path fill="#FFFFFF" d="M297.1,76.5c-2.9,1.7-5.7,3.5-8.4,5.3c-6.5-1.5-13-2.8-19.5-4c-1.8-2.8-3.7-5.5-5.6-8.2
		c2.9-17.9,5.8-35.7,8.7-53.6c3-2,6-3.9,9-5.8c7.6,1.4,15.3,2.9,22.8,4.7c2.1,2.9,4.1,5.9,6.1,8.9C305.9,41.4,301.5,59,297.1,76.5z
		 M287.7,68.6c3.1-14.1,6.2-28.2,9.4-42.3c-4.5-1-9.1-1.9-13.6-2.8c-2.7,14.2-5.4,28.4-8.1,42.5C279.5,66.9,283.6,67.7,287.7,68.6z"
		/>
	<path fill="#FFFFFF" d="M333.5,95c-3.6-1.3-7.3-2.6-10.9-3.7c0-9.8-0.2-19.6-0.7-29.5c-1.1-0.3-2.2-0.7-3.3-1
		c-2.6,8.9-5.2,17.9-7.9,26.8c-3.4-1-6.9-2-10.4-2.9c5.8-22.1,11.7-44.2,17.5-66.4c9.7,2.6,19.4,5.5,29,8.7c1.8,3.1,3.5,6.3,5.2,9.4
		c-2.8,7.9-5.6,15.8-8.4,23.8c-3.4,1.6-6.8,3.3-10.1,5.1C333.7,75.2,333.7,85.2,333.5,95z M322.2,48.6c3.9,1.2,7.8,2.4,11.7,3.6
		c1.6-4.9,3.1-9.7,4.7-14.6c-4-1.3-8.1-2.6-12.2-3.7C325.1,38.8,323.6,43.7,322.2,48.6z"/>
	<path fill="#FFFFFF" d="M392,58.8c-3.7-1.8-7.5-3.4-11.2-5.1c-7.5,17.1-15,34.2-22.4,51.3c-3.3-1.5-6.7-2.9-10-4.2
		c7-17.3,14-34.6,21-51.9c-3.8-1.5-7.6-3-11.4-4.4c1.5-4,3-7.9,4.4-11.9c11.8,4.4,23.5,9.3,35,14.8C395.6,51.1,393.8,54.9,392,58.8z
		"/>
</g>
<g>
	<polygon fill="#FFFFFF" points="195.8,120.7 200.3,114.6 201.9,114.5 202.1,115 196.1,124.7 195.9,124.6 	"/>
	<polygon fill="#FFFFFF" points="195.4,120.6 195.5,124.7 195,124.5 190.3,114.9 190.3,114.4 191.2,113 191.7,113.2 	"/>
	<polygon fill="#FFFFFF" points="196,119.5 197,118.2 197,117.8 193.3,110.5 193,110.5 191.9,112.2 195.8,119.5 	"/>
	<g>
		<path fill="#FFFFFF" d="M199.6,110.4"/>
		<polyline fill="#FFFFFF" points="199.6,110.4 199.7,110.4 200.6,112.2 200.5,112.8 197.7,117 197.4,116.9 196.6,115.4 
			196.6,114.9 199.6,110.4 		"/>
	</g>
	<g>
		<path fill="#FFFFFF" d="M198.1,107.6"/>
		<polyline fill="#FFFFFF" points="198.1,107.6 198.3,107.6 199.2,109.5 199.1,110 196.3,114.2 196,114.1 195.2,112.7 195.2,112.1 
			198.1,107.6 		"/>
	</g>
	<g>
		<path fill="#FFFFFF" d="M196.7,104.9"/>
		<polyline fill="#FFFFFF" points="196.7,104.9 196.8,104.9 197.8,106.8 197.6,107.3 194.8,111.5 194.5,111.4 193.7,110 
			193.7,109.4 196.7,104.9 		"/>
	</g>
</g>
<g>
	<line fill="#FFFFFF" x1="182.6" y1="115" x2="123.9" y2="115"/>
	<path fill="#FFFFFF" d="M182.6,115.3h-58.7c-0.2,0-0.3-0.1-0.3-0.3s0.1-0.3,0.3-0.3h58.7c0.2,0,0.3,0.1,0.3,0.3
		S182.8,115.3,182.6,115.3z"/>
</g>
<g>
	<line fill="#FFFFFF" x1="211.7" y1="115" x2="270.3" y2="115"/>
	<path fill="#FFFFFF" d="M270.3,115.3h-58.7c-0.2,0-0.3-0.1-0.3-0.3s0.1-0.3,0.3-0.3h58.7c0.2,0,0.3,0.1,0.3,0.3
		S270.5,115.3,270.3,115.3z"/>
</g>
</svg>
