<?xml version="1.0" encoding="utf-8"?>
<!-- Generator: Adobe Illustrator 16.0.0, SVG Export Plug-In . SVG Version: 6.00 Build 0)  -->
<!DOCTYPE svg PUBLIC "-//W3C//DTD SVG 1.1//EN" "http://www.w3.org/Graphics/SVG/1.1/DTD/svg11.dtd">
<svg version="1.1" id="Layer_1" xmlns="http://www.w3.org/2000/svg" xmlns:xlink="http://www.w3.org/1999/xlink" x="0px" y="0px"
	 width="300px" height="300px" viewBox="0 0 300 300" enable-background="new 0 0 300 300" xml:space="preserve">
<polygon points="67.306,231.495 219.147,198.585 244.794,217.533 241.269,226.981 19.046,297.143 17.133,291.83 "/>
<polygon points="63.2,223.506 8.948,288.732 5.299,279.491 62.101,67.948 67.616,61.312 99.914,52.128 105.085,60.417 "/>
<polygon points="86.2,215.152 120.049,208.462 125.649,201.743 167.04,41.148 161.548,36.576 121.089,48.367 83.079,212.563 "/>
<g>
	<path d="M263.28,123.667"/>
	<polyline points="263.28,123.667 265.058,125.147 255.664,166.11 246.655,172.438 146.596,199.114 143.594,194.069 150.81,161.1 
		157.983,152.479 263.28,123.667 	"/>
</g>
<g>
	<path d="M278.819,62.078"/>
	<polyline points="278.819,62.078 280.603,63.557 271.229,104.529 262.227,110.83 162.131,137.502 159.13,132.484 166.351,99.483 
		173.525,90.863 278.819,62.078 	"/>
</g>
<g>
	<path d="M292.347,1.198"/>
	<polyline points="292.347,1.198 294.119,2.672 284.741,43.65 275.733,49.958 175.655,76.639 172.631,71.615 179.872,38.625 
		187.046,30.004 292.347,1.198 	"/>
</g>
</svg>
